Coordinates
version=1
nRows=22
nColumns=24
inDegrees=yes

Units are S.I. units (second, meters, Newtons, ...)
Angles are in degrees.

endheader
time	pelvis_tilt	pelvis_list	pelvis_rotation	pelvis_tx	pelvis_ty	pelvis_tz	hip_flexion_r	hip_adduction_r	hip_rotation_r	knee_angle_r	ankle_angle_r	subtalar_angle_r	mtp_angle_r	hip_flexion_l	hip_adduction_l	hip_rotation_l	knee_angle_l	ankle_angle_l	subtalar_angle_l	mtp_angle_l	lumbar_extension	lumbar_bending	lumbar_rotation
      1.32950000	     -0.58944102	      3.78213747	     -1.26519625	      0.20898042	      1.00490560	      0.31324535	     16.57457433	     -2.70433653	      0.43324085	    -66.64029209	     -9.40229334	    -16.40434176	      2.06031456	      8.39959668	      8.30620877	     -0.34204533	     -9.92726562	     -0.47268807	    -11.25116027	      3.34505199	     -0.19224633	     -1.29811794	      2.50261523
      1.33366667	     -0.45322589	      3.69371775	     -1.29102273	      0.21410547	      1.00567841	      0.31313405	     16.99500736	     -2.56994747	      0.56182856	    -66.48056220	     -8.54622059	    -16.45013776	      1.68543297	      7.73853002	      8.24701680	     -0.16732966	     -9.57960188	     -0.42092636	    -11.42448107	      3.08731485	     -0.36240566	     -1.19764686	      2.44764031
      1.33783333	     -0.40824104	      3.58205379	     -1.29025622	      0.21920319	      1.00630013	      0.31303305	     17.49969523	     -2.39977852	      0.67581188	    -66.26722402	     -7.68788886	    -16.61390989	      1.63797178	      7.23410155	      8.14880066	     -0.08434391	     -9.35388326	     -0.22942479	    -11.38530722	      3.05212477	     -0.40343885	     -1.06654434	      2.42274012
      1.34200000	     -0.34920826	      3.47329591	     -1.29982398	      0.22428119	      1.00689879	      0.31293946	     17.98037921	     -2.23901618	      0.78607777	    -66.00272369	     -6.86735984	    -16.74017171	      1.58933724	      6.70884787	      8.05349754	      0.00272440	     -9.11098788	     -0.06918172	    -11.37161095	      3.01378951	     -0.47928548	     -0.94150378	      2.39048808
      1.34616667	     -0.20248314	      3.37383607	     -1.31512548	      0.22936348	      1.00760100	      0.31282331	     18.34252465	     -2.09663040	      0.89936481	    -65.66980641	     -6.05517631	    -16.77368179	      1.27572592	      6.05046214	      7.98001642	      0.16132822	     -8.78723994	      0.00983195	    -11.48519241	      2.77962160	     -0.67793886	     -0.80259748	      2.32934431
      1.35033333	     -0.17696719	      3.24790035	     -1.30345675	      0.23441423	      1.00809791	      0.31271900	     18.82310130	     -1.91778717	      0.99350100	    -65.28755645	     -5.25831639	    -16.90150134	      1.23208122	      5.57924447	      7.86534968	      0.26060315	     -8.58095137	      0.20374871	    -11.46787417	      2.74389424	     -0.70923049	     -0.65631361	      2.30979508
      1.35450000	     -0.10720557	      3.13581064	     -1.29985422	      0.23944874	      1.00861029	      0.31262864	     19.24286798	     -1.75521296	      1.09392874	    -64.85664413	     -4.46145082	    -16.99877451	      1.17996838	      5.05117097	      7.76664023	      0.36563297	     -8.35065210	      0.36893144	    -11.46616260	      2.69953091	     -0.81105256	     -0.52462186	      2.27586923
      1.35866667	      0.03918753	      3.02099207	     -1.30202694	      0.24451861	      1.00923005	      0.31252098	     19.54857710	     -1.60152764	      1.18717998	    -64.34395596	     -3.72594467	    -16.98475917	      0.89614929	      4.39540727	      7.67367710	      0.53602768	     -8.02855223	      0.44898126	    -11.59223254	      2.47169858	     -0.99960132	     -0.38969115	      2.20292014
      1.36283333	      0.05568644	      2.90559962	     -1.27902501	      0.24951300	      1.00958854	      0.31241161	     19.99939551	     -1.44259149	      1.26549294	    -63.81755256	     -2.97123626	    -17.09198032	      0.85089173	      3.94649421	      7.56946898	      0.64386207	     -7.83632879	      0.65009027	    -11.58545458	      2.43303736	     -1.03883661	     -0.24274368	      2.18588925
      1.36700000	      0.14151008	      2.79202619	     -1.25784875	      0.25452554	      1.01003230	      0.31232346	     20.34449684	     -1.28699838	      1.34569979	    -63.21616207	     -2.23256552	    -17.15430404	      0.77716527	      3.40805126	      7.46738236	      0.76148069	     -7.61370028	      0.81307461	    -11.60318300	      2.37005982	     -1.14998496	     -0.13329269	      2.14346816
      1.37116667	      0.25384174	      2.66500221	     -1.24361175	      0.25955891	      1.01049675	      0.31220587	     20.63837416	     -1.12767309	      1.41437340	    -62.54828728	     -1.59038912	    -17.14073659	      0.47402835	      2.80576760	      7.35751300	      0.93740890	     -7.31760617	      0.89960533	    -11.72936931	      2.12442221	     -1.31365773	      0.03194227	      2.05829919
      1.37533333	      0.28124842	      2.55556336	     -1.20381493	      0.26453349	      1.01076516	      0.31209702	     21.02273288	     -0.98577618	      1.47089580	    -61.86310020	     -0.90132366	    -17.23236190	      0.41870230	      2.35921427	      7.25673128	      1.04939933	     -7.14792604	      1.11206541	    -11.72872208	      2.07946539	     -1.35822529	      0.15529682	      2.04193999
      1.37950000	      0.35197145	      2.43782646	     -1.16828749	      0.26951967	      1.01108508	      0.31199858	     21.33352586	     -0.83641856	      1.52670024	    -61.11064998	     -0.26125648	    -17.29295032	      0.35705247	      1.85035955	      7.14645246	      1.16836559	     -6.94354466	      1.28457895	    -11.74371251	      2.02890775	     -1.46406890	      0.29350341	      2.00118748
      1.38366667	      0.47540616	      2.33442577	     -1.14145786	      0.27451988	      1.01143567	      0.31189954	     21.57005697	     -0.71015908	      1.57898276	    -60.30865316	      0.31214474	    -17.33712443	      0.22302152	      1.25691832	      7.05472906	      1.31618702	     -6.68143447	      1.43552156	    -11.79776844	      1.92511591	     -1.64036484	      0.41041000	      1.91891518
      1.38783333	      0.53670399	      2.22388126	     -1.09485483	      0.27949452	      1.01165362	      0.31179001	     21.85842208	     -0.57775974	      1.61666449	    -59.46414440	      0.86860204	    -17.38839049	      0.08123437	      0.76040582	      6.95150025	      1.46331580	     -6.47697338	      1.60133326	    -11.85782331	      1.81979961	     -1.73820608	      0.53813135	      1.85946024
      1.39200000	      0.53652734	      2.11041360	     -1.03906866	      0.28444410	      1.01175177	      0.31168542	     22.19975281	     -0.44197769	      1.64734756	    -58.57471393	      1.36622310	    -17.43741467	      0.02446135	      0.35638499	      6.84028623	      1.58465283	     -6.32109125	      1.77907055	    -11.88444600	      1.77909313	     -1.76663113	      0.67316605	      1.83333684
      1.39616667	      0.64395816	      2.02821303	     -0.99554099	      0.28941604	      1.01196088	      0.31158178	     22.40360409	     -0.34644884	      1.68644804	    -57.64005522	      1.83640913	    -17.50348331	     -0.12074124	     -0.19951689	      6.76703650	      1.74308625	     -6.09320147	      1.93261911	    -11.95246509	      1.67959746	     -1.92168531	      0.76380849	      1.73826154
      1.40033333	      0.72090145	      1.93201535	     -0.93986423	      0.29437621	      1.01210515	      0.31147696	     22.61890577	     -0.23782151	      1.71064879	    -56.65221201	      2.25406073	    -17.57195267	     -0.30674580	     -0.70991513	      6.67520994	      1.90517172	     -5.88854931	      2.08153756	    -12.02455121	      1.55792382	     -2.04515283	      0.87413748	      1.66482082
      1.40450000	      0.77357835	      1.84787739	     -0.87748633	      0.29932279	      1.01215878	      0.31137022	     22.84876697	     -0.14562328	      1.72897126	    -55.63331227	      2.64067143	    -17.64428939	     -0.47488581	     -1.17872246	      6.59391413	      2.05739606	     -5.71471375	      2.25929431	    -12.07646991	      1.45511447	     -2.13553876	      0.97383001	      1.59921280
      1.40866667	      0.81954181	      1.76260352	     -0.81485279	      0.30426842	      1.01217396	      0.31127187	     23.06594947	     -0.05220299	      1.74466936	    -54.56715887	      2.97278463	    -17.73398185	     -0.65539507	     -1.63877766	      6.50967099	      2.21239570	     -5.54305919	      2.42907227	    -12.12866077	      1.35076249	     -2.22242736	      1.07378934	      1.53021958
      1.41283333	      0.81467038	      1.66984922	     -0.73659471	      0.30920802	      1.01209488	      0.31116051	     23.31986796	      0.04098119	      1.73657378	    -53.45987909	      3.27997033	    -17.79348309	     -0.73479497	     -2.02209396	      6.41255792	      2.34355065	     -5.41330974	      2.61303394	    -12.15435350	      1.30928165	     -2.24817069	      1.17840317	      1.49974614
      1.41700000	      0.89868390	      1.60646197	     -0.68211037	      0.31415486	      1.01209353	      0.31107612	     23.46025909	      0.10929556	      1.75829591	    -52.31291823	      3.50304743	    -17.92852446	     -0.91259848	     -2.53699039	      6.35000852	      2.50751516	     -5.21200959	      2.77061507	    -12.20604940	      1.21830202	     -2.38514291	      1.25032150	      1.39273876
